<?xml version="1.0" encoding="utf-8"?>
<!-- Generator: Adobe Illustrator 26.0.0, SVG Export Plug-In . SVG Version: 6.00 Build 0)  -->
<svg version="1.1" id="Layer_1" xmlns="http://www.w3.org/2000/svg" xmlns:xlink="http://www.w3.org/1999/xlink" x="0px" y="0px"
	 viewBox="0 0 595.28 595.28" style="enable-background:new 0 0 595.28 595.28;" xml:space="preserve">
<style type="text/css">
	.st0{fill:#64CCC5;}
	.st1{font-family:'MVBoli';}
	.st2{font-size:76.0976px;}
	.st3{fill:#DAFFFB;}
	.st4{font-size:14.2991px;}
</style>
<g>
	<path class="st0" d="M337.4,357.57c-22.07,34.79-62.94,56.99-107.33,52.57c-57.98-4.78-104.4-55.27-103.73-111.85
		c-0.59-56.53,45.83-106.92,103.73-111.75c45.15-4.53,86.66,18.5,108.46,54.31c0.83-0.04,1.66-0.05,2.48-0.04
		c-12.86-25.91-34.2-47.82-60.92-60.86C190.5,135.5,84.82,199.64,84.91,298.28c0.02,98.55,105.62,162.61,195.16,118.27
		c26.09-12.71,47.04-33.87,59.99-58.96C339.18,357.57,338.29,357.56,337.4,357.57z"/>
</g>
<text transform="matrix(1.0205 0 0 1.2 165.1 324.4911)" class="st0 st1 st2">Book Pile</text>
</svg>